# xmcd
#
# Track frame offsets:
#       150
#       16831
#       35577
#       47907
#       67057
#       86696
#       103755
#       128783
#       149904
#       170038
#       188382
#       206181
#       226817
#       245388
#       266124
#
# Disc length: 3743 seconds
#
# Revision: 1
# Processed by: cddbd v1.5.1PL0 Copyright (c) Steve Scherf et al.
# Submitted via: MusiCat 1.1
#
DISCID=df0e9d0f
DTITLE=Rod Stewart - Tribute
DYEAR=1900
DGENRE=
TTITLE0=Tonight's the night
TTITLE1=Maggie may
TTITLE2=What's made mil waukee famous
TTITLE3=You wear it well
TTITLE4=Sailing
TTITLE5=The first cut is the deepest
TTITLE6=Do ya think i'm sexy
TTITLE7=Young Turks
TTITLE8=Waltzing matilda
TTITLE9=Ruby tuesday
TTITLE10=Have i toud you lately
TTITLE11=This old heart of mine
TTITLE12=Hot legs
TTITLE13=I don't want to talk about it
TTITLE14=Blondes have more fun
EXTD=\n\n
EXTT0=
EXTT1=
EXTT2=
EXTT3=
EXTT4=
EXTT5=
EXTT6=
EXTT7=
EXTT8=
EXTT9=
EXTT10=
EXTT11=
EXTT12=
EXTT13=
EXTT14=
PLAYORDER=
